<?xml version="1.0" encoding="UTF-8" standalone="no"?>
<!-- Created with Inkscape (http://www.inkscape.org/) -->

<svg
   xmlns:dc="http://purl.org/dc/elements/1.1/"
   xmlns:cc="http://creativecommons.org/ns#"
   xmlns:rdf="http://www.w3.org/1999/02/22-rdf-syntax-ns#"
   xmlns:svg="http://www.w3.org/2000/svg"
   xmlns="http://www.w3.org/2000/svg"
   xmlns:sodipodi="http://sodipodi.sourceforge.net/DTD/sodipodi-0.dtd"
   xmlns:inkscape="http://www.inkscape.org/namespaces/inkscape"
   width="210mm"
   height="297mm"
   viewBox="0 0 210 297"
   version="1.1"
   id="svg8"
   sodipodi:docname="grim-logo-noir.svg"
   inkscape:version="0.92.1 r15371"
   inkscape:export-filename="/home/amnesia/Pictures/grim-logo-noir.svg.png">
  <defs
     id="defs2" />
  <sodipodi:namedview
     id="base"
     pagecolor="#ffffff"
     bordercolor="#666666"
     borderopacity="1.0"
     inkscape:pageopacity="0.0"
     inkscape:pageshadow="2"
     inkscape:zoom="0.50000001"
     inkscape:cx="941.06335"
     inkscape:cy="453.59097"
     inkscape:document-units="mm"
     inkscape:current-layer="layer1"
     showgrid="false"
     inkscape:window-width="1920"
     inkscape:window-height="1016"
     inkscape:window-x="0"
     inkscape:window-y="27"
     inkscape:window-maximized="1"
     showguides="false">
    <inkscape:grid
       type="xygrid"
       id="grid3703" />
  </sodipodi:namedview>
  <metadata
     id="metadata5">
    <rdf:RDF>
      <cc:Work
         rdf:about="">
        <dc:format>image/svg+xml</dc:format>
        <dc:type
           rdf:resource="http://purl.org/dc/dcmitype/StillImage" />
        <dc:title />
      </cc:Work>
    </rdf:RDF>
  </metadata>
  <g
     inkscape:label="Layer 1"
     inkscape:groupmode="layer"
     id="layer1"
     style="display:inline">
    <g
       id="g3901"
       transform="translate(13.71875,-20.177085)"
       inkscape:export-xdpi="300"
       inkscape:export-ydpi="300">
      <g
         id="g3874"
         style="fill:none;stroke:#000000"
         inkscape:export-xdpi="106.53322"
         inkscape:export-ydpi="106.53322">
        <g
           id="g3818"
           style="fill:none;stroke:#000000">
          <path
             sodipodi:nodetypes="cccccccccccccccccccccccc"
             inkscape:connector-curvature="0"
             id="path3707"
             d="m 42.333333,148.83333 h 7.9375 l 5.291666,5.29167 v 0 2.64583 H 50.270833 L 47.624999,154.125 h -2.645833 l -2.645833,2.64583 v 15.87501 l 2.645833,2.64583 h 2.645833 l 2.645834,-2.64583 V 170 l -2.645834,-2.64583 v -5.29167 h 2.645834 l 5.291666,5.29167 v 7.9375 l -5.291666,5.29167 h -7.9375 l -5.291667,-5.29167 V 154.125 Z"
             style="fill:none;stroke:#000000;stroke-width:0.26458332px;stroke-linecap:butt;stroke-linejoin:miter;stroke-opacity:1" />
          <path
             sodipodi:nodetypes="ccccccccccccccccccccccccc"
             inkscape:connector-curvature="0"
             id="path3709"
             transform="scale(0.26458333)"
             d="m 245,562.51953 -20,20 -4e-5,99.99999 h 20 l 4e-5,-39.99999 10,-10 h 10 l 10,10 -4e-5,39.99999 h 20 l 4e-5,-49.99999 -10,-10 10,-10 v -30 l -20,-20 z m 10,20 h 10 l 10,10 v 10 l -10,10 h -10 l -10,-10 v -10 z"
             style="fill:none;stroke:#000000;stroke-width:0.99999994px;stroke-linecap:butt;stroke-linejoin:miter;stroke-opacity:1" />
          <path
             sodipodi:nodetypes="ccccc"
             inkscape:connector-curvature="0"
             id="path3715"
             d="m 82.020822,180.58333 h 5.291668 l 1e-5,-31.75 h -5.291668 z"
             style="fill:none;stroke:#000000;stroke-width:0.26458332px;stroke-linecap:butt;stroke-linejoin:miter;stroke-opacity:1" />
          <path
             sodipodi:nodetypes="cccccccccccccccccccccc"
             inkscape:connector-curvature="0"
             id="path3717"
             d="m 91.281239,180.58333 1e-5,-26.45833 5.291666,-5.29167 h 7.937505 l 2.64583,2.64584 2.64583,-2.64584 h 7.9375 l 5.29167,5.29167 -1e-5,26.45833 h -5.29167 l 1e-5,-23.8125 -2.64583,-2.64583 h -2.64583 l -2.64584,2.64583 -1e-5,23.8125 h -5.29166 l 1e-5,-23.8125 -2.64584,-2.64583 h -2.645831 l -2.645834,2.64583 -10e-6,23.8125 z"
             style="fill:none;stroke:#000000;stroke-width:0.26458332px;stroke-linecap:butt;stroke-linejoin:miter;stroke-opacity:1" />
        </g>
        <g
           id="g3853"
           style="fill:none;stroke:#000000">
          <path
             sodipodi:nodetypes="ccccccccccccccccc"
             inkscape:connector-curvature="0"
             id="path3719"
             transform="scale(0.26458333)"
             d="m 495,562.51953 v 65 h 40 v -65 z m 5,15 h 5 5 v 5 h -10 z m 15,0 h 5 5 v 5 h -10 z"
             style="fill:none;stroke:#000000;stroke-width:1.00000024px;stroke-linecap:butt;stroke-linejoin:miter;stroke-opacity:1" />
          <g
             id="g3834"
             style="fill:none;stroke:#000000">
            <path
               style="fill:none;stroke:#000000;stroke-width:0.26458332px;stroke-linecap:butt;stroke-linejoin:miter;stroke-opacity:1"
               d="m 132.29167,166.03125 -1e-5,13.22916 h 1.32292 l 1e-5,-13.22916 z"
               id="path3721"
               inkscape:connector-curvature="0"
               sodipodi:nodetypes="ccccc" />
            <path
               style="fill:none;stroke:#000000;stroke-width:0.26458332px;stroke-linecap:butt;stroke-linejoin:miter;stroke-opacity:1"
               d="m 130.96875,179.26041 v 1.32292 h 3.96875 v -1.32292 z"
               id="path3725"
               inkscape:connector-curvature="0"
               sodipodi:nodetypes="ccccc" />
          </g>
          <g
             id="g3830"
             style="fill:none;stroke:#000000">
            <path
               style="fill:none;stroke:#000000;stroke-width:0.26458332px;stroke-linecap:butt;stroke-linejoin:miter;stroke-opacity:1"
               d="m 130.96875,150.15625 h -2.64583 v 17.19792 h 1.32292 v -15.875 h 1.32291 z"
               id="path3727"
               inkscape:connector-curvature="0"
               sodipodi:nodetypes="ccccccc" />
            <path
               style="fill:none;stroke:#000000;stroke-width:0.26458332px;stroke-linecap:butt;stroke-linejoin:miter;stroke-opacity:1"
               d="m 130.96875,170 v -2.64584 h -3.96874 V 170 h 1.32291 v -1.32292 h 1.32292 V 170 Z"
               id="path3729"
               inkscape:connector-curvature="0"
               sodipodi:nodetypes="ccccccccc" />
          </g>
          <g
             id="g3838"
             style="fill:none;stroke:#000000">
            <path
               style="fill:none;stroke:#000000;stroke-width:0.26458332px;stroke-linecap:butt;stroke-linejoin:miter;stroke-opacity:1"
               d="m 138.90625,166.03125 -1e-5,13.22916 h 1.32292 l 1e-5,-13.22916 z"
               id="path3721-6"
               inkscape:connector-curvature="0"
               sodipodi:nodetypes="ccccc" />
            <path
               style="fill:none;stroke:#000000;stroke-width:0.26458332px;stroke-linecap:butt;stroke-linejoin:miter;stroke-opacity:1"
               d="m 137.58333,179.26041 v 1.32292 h 3.96875 v -1.32292 z"
               id="path3725-7"
               inkscape:connector-curvature="0"
               sodipodi:nodetypes="ccccc" />
          </g>
          <g
             id="g3826"
             style="fill:none;stroke:#000000">
            <path
               style="fill:none;stroke:#000000;stroke-width:0.26458332px;stroke-linecap:butt;stroke-linejoin:miter;stroke-opacity:1"
               d="m 141.5521,150.15626 h 2.64583 v 17.19792 h -1.32292 v -15.875 h -1.32291 z"
               id="path3727-5"
               inkscape:connector-curvature="0"
               sodipodi:nodetypes="ccccccc" />
            <path
               style="fill:none;stroke:#000000;stroke-width:0.26458332px;stroke-linecap:butt;stroke-linejoin:miter;stroke-opacity:1"
               d="m 141.5521,170.00001 v -2.64584 h 3.96874 v 2.64584 h -1.32291 v -1.32292 h -1.32292 v 1.32292 z"
               id="path3729-3"
               inkscape:connector-curvature="0"
               sodipodi:nodetypes="ccccccccc" />
          </g>
        </g>
      </g>
      <g
         aria-label="Groupe de Recherche en Intelligence Machine"
         style="font-style:normal;font-weight:normal;font-size:10.86671162px;line-height:1.25;font-family:sans-serif;letter-spacing:0px;word-spacing:0px;fill:#000000;fill-opacity:1;stroke:none;stroke-width:0.27166778"
         id="text3795">
        <path
           d="m 37.303039,188.18737 v 0.31695 h 0.950837 v -0.31695 z m 0,0 q 0,0 0,-2.53556 h -0.316946 q 0,0 0,2.53556 z m 1.267783,0 v 0.31695 h 0.316946 v -1.58473 h -0.950837 v 0.31695 h 0.633891 q 0,0 0,0.63389 h -0.316946 v 0.31694 z m 0,-2.53556 q 0,0 0,0.63389 h 0.316946 q 0,0 0,-0.63389 z m -1.267783,0 h 1.267783 v -0.31695 h -1.267783 z"
           style="font-style:normal;font-variant:normal;font-weight:normal;font-stretch:normal;font-size:5.07113218px;line-height:11;font-family:Unifont;-inkscape-font-specification:Unifont;fill:#000000;stroke-width:0.27166778"
           id="path3923"
           inkscape:connector-curvature="0" />
        <path
           d="m 39.521659,185.96875 q 0,0 0,2.53557 h 0.316946 q 0,0 0,-1.90168 h 0.316946 v -0.31694 h -0.316946 v -0.31695 z m 1.584729,0.31695 q 0,0 0,0.63389 h 0.316946 q 0,0 0,-0.63389 z m -0.950837,0 h 0.950837 v -0.31695 h -0.950837 z"
           style="font-style:normal;font-variant:normal;font-weight:normal;font-stretch:normal;font-size:5.07113218px;line-height:11;font-family:Unifont;-inkscape-font-specification:Unifont;fill:#000000;stroke-width:0.27166778"
           id="path3925"
           inkscape:connector-curvature="0" />
        <path
           d="m 42.374171,188.18737 v 0.31695 h 1.267783 v -0.31695 z m 0,0 q 0,0 0,-1.90167 h -0.316946 q 0,0 0,1.90167 z m 1.267783,0 H 43.9589 q 0,0 0,-1.90167 h -0.316946 q 0,0 0,1.90167 z m -1.267783,-1.90167 h 1.267783 v -0.31695 h -1.267783 z"
           style="font-style:normal;font-variant:normal;font-weight:normal;font-stretch:normal;font-size:5.07113218px;line-height:11;font-family:Unifont;-inkscape-font-specification:Unifont;fill:#000000;stroke-width:0.27166778"
           id="path3927"
           inkscape:connector-curvature="0" />
        <path
           d="m 44.909737,188.18737 v 0.31695 h 0.950837 v -0.31695 z m 0,0 v -2.21862 h -0.316946 v 2.21862 z m 1.267783,0 v 0.31695 h 0.316946 q 0,0 0,-2.53557 H 46.17752 q 0,0 0,1.90168 h -0.316946 v 0.31694 z"
           style="font-style:normal;font-variant:normal;font-weight:normal;font-stretch:normal;font-size:5.07113218px;line-height:11;font-family:Unifont;-inkscape-font-specification:Unifont;fill:#000000;stroke-width:0.27166778"
           id="path3929"
           inkscape:connector-curvature="0" />
        <path
           d="m 47.128358,185.96875 q 0,0 0,3.16946 h 0.316945 v -0.95084 h 0.316946 v 0.31695 h 0.950837 v -0.31695 h -0.950837 v -0.31694 h -0.316946 q 0,0 0,-1.26779 h 0.316946 v -0.31694 h -0.316946 v -0.31695 z m 1.584728,2.21862 h 0.316946 q 0,0 0,-1.90167 h -0.316946 q 0,0 0,1.90167 z m -0.950837,-1.90167 h 0.950837 v -0.31695 h -0.950837 z"
           style="font-style:normal;font-variant:normal;font-weight:normal;font-stretch:normal;font-size:5.07113218px;line-height:11;font-family:Unifont;-inkscape-font-specification:Unifont;fill:#000000;stroke-width:0.27166778"
           id="path3931"
           inkscape:connector-curvature="0" />
        <path
           d="m 51.565599,188.18737 v -0.31694 h -0.316946 v 0.31694 H 49.98087 v 0.31695 h 1.267783 v -0.31695 z m -1.584729,0 v -0.95083 h 1.584729 v -0.95084 h -0.316946 q 0,0 0,0.63389 H 49.98087 q 0,0 0,-0.63389 h -0.316946 q 0,0 0,1.90167 z m 0,-1.90167 h 1.267783 v -0.31695 H 49.98087 Z"
           style="font-style:normal;font-variant:normal;font-weight:normal;font-stretch:normal;font-size:5.07113218px;line-height:11;font-family:Unifont;-inkscape-font-specification:Unifont;fill:#000000;stroke-width:0.27166778"
           id="path3933"
           inkscape:connector-curvature="0" />
        <path
           d="m 55.052001,188.18737 v 0.31695 h 0.950838 v -0.31695 z m 0,0 q 0,0 0,-1.90167 h -0.316945 q 0,0 0,1.90167 z m 1.267783,0 v 0.31695 h 0.316946 v -3.48641 h -0.316946 q 0,0 0,1.26779 h -0.316945 v 0.31694 h 0.316945 q 0,0 0,1.26779 h -0.316945 v 0.31694 z m -1.267783,-1.90167 h 0.950838 v -0.31695 h -0.950838 z"
           style="font-style:normal;font-variant:normal;font-weight:normal;font-stretch:normal;font-size:5.07113218px;line-height:11;font-family:Unifont;-inkscape-font-specification:Unifont;fill:#000000;stroke-width:0.27166778"
           id="path3935"
           inkscape:connector-curvature="0" />
        <path
           d="m 59.172297,188.18737 v -0.31694 h -0.316946 v 0.31694 h -1.267783 v 0.31695 h 1.267783 v -0.31695 z m -1.584729,0 v -0.95083 h 1.584729 v -0.95084 h -0.316946 q 0,0 0,0.63389 h -1.267783 q 0,0 0,-0.63389 h -0.316946 q 0,0 0,1.90167 z m 0,-1.90167 h 1.267783 v -0.31695 h -1.267783 z"
           style="font-style:normal;font-variant:normal;font-weight:normal;font-stretch:normal;font-size:5.07113218px;line-height:11;font-family:Unifont;-inkscape-font-specification:Unifont;fill:#000000;stroke-width:0.27166778"
           id="path3937"
           inkscape:connector-curvature="0" />
        <path
           d="m 62.341755,185.33486 q 0,0 0,3.16946 H 62.6587 v -1.58473 h 0.633892 v 0.31695 h 0.316946 q 0,0 0,0.63389 h 0.316945 q 0,0 0,0.63389 h 0.316946 q 0,0 0,-0.63389 h -0.316946 q 0,0 0,-0.63389 h -0.316945 v -0.31695 h 0.316945 v -0.31695 H 62.6587 v -0.95083 h 1.267783 v 0.95083 h 0.316946 v -0.95083 h -0.316946 v -0.31695 z"
           style="font-style:normal;font-variant:normal;font-weight:normal;font-stretch:normal;font-size:5.07113218px;line-height:11;font-family:Unifont;-inkscape-font-specification:Unifont;fill:#000000;stroke-width:0.27166778"
           id="path3939"
           inkscape:connector-curvature="0" />
        <path
           d="m 66.778996,188.18737 v -0.31694 H 66.46205 v 0.31694 h -1.267783 v 0.31695 h 1.267783 v -0.31695 z m -1.584729,0 v -0.95083 h 1.584729 V 186.2857 H 66.46205 q 0,0 0,0.63389 h -1.267783 q 0,0 0,-0.63389 h -0.316946 q 0,0 0,1.90167 z m 0,-1.90167 h 1.267783 v -0.31695 h -1.267783 z"
           style="font-style:normal;font-variant:normal;font-weight:normal;font-stretch:normal;font-size:5.07113218px;line-height:11;font-family:Unifont;-inkscape-font-specification:Unifont;fill:#000000;stroke-width:0.27166778"
           id="path3941"
           inkscape:connector-curvature="0" />
        <path
           d="m 69.31456,188.18737 v -0.31694 h -0.316946 v 0.31694 h -1.267783 v 0.31695 h 1.267783 v -0.31695 z m 0,-1.58473 v -0.31694 h -0.316946 v 0.31694 z m -1.584729,1.58473 q 0,0 0,-1.90167 h -0.316946 q 0,0 0,1.90167 z m 0,-1.90167 h 1.267783 v -0.31695 h -1.267783 z"
           style="font-style:normal;font-variant:normal;font-weight:normal;font-stretch:normal;font-size:5.07113218px;line-height:11;font-family:Unifont;-inkscape-font-specification:Unifont;fill:#000000;stroke-width:0.27166778"
           id="path3943"
           inkscape:connector-curvature="0" />
        <path
           d="m 69.948454,185.01791 v 3.48641 h 0.316945 q 0,0 0,-1.90168 h 0.316946 v -0.31694 h -0.316946 q 0,0 0,-1.26779 z m 1.584728,1.26779 v 2.21862 h 0.316946 v -2.21862 z m -0.950837,0 h 0.950837 v -0.31695 h -0.950837 z"
           style="font-style:normal;font-variant:normal;font-weight:normal;font-stretch:normal;font-size:5.07113218px;line-height:11;font-family:Unifont;-inkscape-font-specification:Unifont;fill:#000000;stroke-width:0.27166778"
           id="path3945"
           inkscape:connector-curvature="0" />
        <path
           d="m 74.385693,188.18737 v -0.31694 h -0.316946 v 0.31694 h -1.267783 v 0.31695 h 1.267783 v -0.31695 z m -1.584729,0 v -0.95083 h 1.584729 v -0.95084 h -0.316946 q 0,0 0,0.63389 h -1.267783 q 0,0 0,-0.63389 h -0.316946 q 0,0 0,1.90167 z m 0,-1.90167 h 1.267783 v -0.31695 h -1.267783 z"
           style="font-style:normal;font-variant:normal;font-weight:normal;font-stretch:normal;font-size:5.07113218px;line-height:11;font-family:Unifont;-inkscape-font-specification:Unifont;fill:#000000;stroke-width:0.27166778"
           id="path3947"
           inkscape:connector-curvature="0" />
        <path
           d="m 75.019586,185.96875 q 0,0 0,2.53557 h 0.316946 q 0,0 0,-1.90168 h 0.316946 v -0.31694 h -0.316946 v -0.31695 z m 1.584729,0.31695 q 0,0 0,0.63389 h 0.316946 q 0,0 0,-0.63389 z m -0.950837,0 h 0.950837 v -0.31695 h -0.950837 z"
           style="font-style:normal;font-variant:normal;font-weight:normal;font-stretch:normal;font-size:5.07113218px;line-height:11;font-family:Unifont;-inkscape-font-specification:Unifont;fill:#000000;stroke-width:0.27166778"
           id="path3949"
           inkscape:connector-curvature="0" />
        <path
           d="m 79.456825,188.18737 v -0.31694 H 79.13988 v 0.31694 h -1.267784 v 0.31695 h 1.267784 v -0.31695 z m 0,-1.58473 V 186.2857 H 79.13988 v 0.31694 z m -1.584729,1.58473 q 0,0 0,-1.90167 h -0.316945 q 0,0 0,1.90167 z m 0,-1.90167 h 1.267784 v -0.31695 h -1.267784 z"
           style="font-style:normal;font-variant:normal;font-weight:normal;font-stretch:normal;font-size:5.07113218px;line-height:11;font-family:Unifont;-inkscape-font-specification:Unifont;fill:#000000;stroke-width:0.27166778"
           id="path3951"
           inkscape:connector-curvature="0" />
        <path
           d="m 80.090715,185.01791 v 3.48641 h 0.316946 q 0,0 0,-1.90168 h 0.316946 v -0.31694 h -0.316946 q 0,0 0,-1.26779 z m 1.584729,1.26779 v 2.21862 h 0.316946 v -2.21862 z m -0.950837,0 h 0.950837 v -0.31695 h -0.950837 z"
           style="font-style:normal;font-variant:normal;font-weight:normal;font-stretch:normal;font-size:5.07113218px;line-height:11;font-family:Unifont;-inkscape-font-specification:Unifont;fill:#000000;stroke-width:0.27166778"
           id="path3953"
           inkscape:connector-curvature="0" />
        <path
           d="m 84.527958,188.18737 v -0.31694 h -0.316946 v 0.31694 h -1.267783 v 0.31695 h 1.267783 v -0.31695 z m -1.584729,0 v -0.95083 h 1.584729 v -0.95084 h -0.316946 q 0,0 0,0.63389 h -1.267783 q 0,0 0,-0.63389 h -0.316946 q 0,0 0,1.90167 z m 0,-1.90167 h 1.267783 v -0.31695 h -1.267783 z"
           style="font-style:normal;font-variant:normal;font-weight:normal;font-stretch:normal;font-size:5.07113218px;line-height:11;font-family:Unifont;-inkscape-font-specification:Unifont;fill:#000000;stroke-width:0.27166778"
           id="path3955"
           inkscape:connector-curvature="0" />
        <path
           d="m 89.599091,188.18737 v -0.31694 h -0.316946 v 0.31694 h -1.267783 v 0.31695 h 1.267783 v -0.31695 z m -1.584729,0 v -0.95083 h 1.584729 v -0.95084 h -0.316946 q 0,0 0,0.63389 h -1.267783 q 0,0 0,-0.63389 h -0.316946 q 0,0 0,1.90167 z m 0,-1.90167 h 1.267783 v -0.31695 h -1.267783 z"
           style="font-style:normal;font-variant:normal;font-weight:normal;font-stretch:normal;font-size:5.07113218px;line-height:11;font-family:Unifont;-inkscape-font-specification:Unifont;fill:#000000;stroke-width:0.27166778"
           id="path3957"
           inkscape:connector-curvature="0" />
        <path
           d="m 90.23298,185.96875 q 0,0 0,2.53557 h 0.316946 q 0,0 0,-1.90168 h 0.316946 v -0.31694 h -0.316946 v -0.31695 z m 1.584729,0.31695 v 2.21862 h 0.316946 v -2.21862 z m -0.950837,0 h 0.950837 v -0.31695 h -0.950837 z"
           style="font-style:normal;font-variant:normal;font-weight:normal;font-stretch:normal;font-size:5.07113218px;line-height:11;font-family:Unifont;-inkscape-font-specification:Unifont;fill:#000000;stroke-width:0.27166778"
           id="path3959"
           inkscape:connector-curvature="0" />
        <path
           d="m 97.205788,188.50432 v -0.31695 h -0.633892 q 0,0 0,-2.53556 h 0.633892 v -0.31695 h -1.584729 v 0.31695 h 0.633891 q 0,0 0,2.53556 h -0.633891 v 0.31695 z"
           style="font-style:normal;font-variant:normal;font-weight:normal;font-stretch:normal;font-size:5.07113218px;line-height:11;font-family:Unifont;-inkscape-font-specification:Unifont;fill:#000000;stroke-width:0.27166778"
           id="path3961"
           inkscape:connector-curvature="0" />
        <path
           d="m 97.839678,185.96875 q 0,0 0,2.53557 h 0.316945 q 0,0 0,-1.90168 h 0.316946 v -0.31694 h -0.316946 v -0.31695 z m 1.584728,0.31695 v 2.21862 h 0.316946 v -2.21862 z m -0.950837,0 h 0.950837 v -0.31695 h -0.950837 z"
           style="font-style:normal;font-variant:normal;font-weight:normal;font-stretch:normal;font-size:5.07113218px;line-height:11;font-family:Unifont;-inkscape-font-specification:Unifont;fill:#000000;stroke-width:0.27166778"
           id="path3963"
           inkscape:connector-curvature="0" />
        <path
           d="m 101.95997,188.50432 v -0.31695 h -0.63389 v 0.31695 z m 0,-1.90168 v -0.31694 h -0.63389 v -0.95084 h -0.31694 v 0.95084 h -0.63389 v 0.31694 h 0.63389 v 1.58473 h 0.31694 v -1.58473 z"
           style="font-style:normal;font-variant:normal;font-weight:normal;font-stretch:normal;font-size:5.07113218px;line-height:11;font-family:Unifont;-inkscape-font-specification:Unifont;fill:#000000;stroke-width:0.27166778"
           id="path3965"
           inkscape:connector-curvature="0" />
        <path
           d="m 104.81249,188.18737 v -0.31694 h -0.31695 v 0.31694 h -1.26778 v 0.31695 h 1.26778 v -0.31695 z m -1.58473,0 v -0.95083 h 1.58473 v -0.95084 h -0.31695 q 0,0 0,0.63389 h -1.26778 q 0,0 0,-0.63389 h -0.31695 q 0,0 0,1.90167 z m 0,-1.90167 h 1.26778 v -0.31695 h -1.26778 z"
           style="font-style:normal;font-variant:normal;font-weight:normal;font-stretch:normal;font-size:5.07113218px;line-height:11;font-family:Unifont;-inkscape-font-specification:Unifont;fill:#000000;stroke-width:0.27166778"
           id="path3967"
           inkscape:connector-curvature="0" />
        <path
           d="m 107.34805,188.50432 v -0.31695 h -0.63389 q 0,0 0,-3.16946 h -0.63389 v 0.31695 h 0.31694 v 2.85251 h -0.63389 v 0.31695 z"
           style="font-style:normal;font-variant:normal;font-weight:normal;font-stretch:normal;font-size:5.07113218px;line-height:11;font-family:Unifont;-inkscape-font-specification:Unifont;fill:#000000;stroke-width:0.27166778"
           id="path3969"
           inkscape:connector-curvature="0" />
        <path
           d="m 109.88362,188.50432 v -0.31695 h -0.63389 q 0,0 0,-3.16946 h -0.6339 v 0.31695 h 0.31695 v 2.85251 h -0.63389 v 0.31695 z"
           style="font-style:normal;font-variant:normal;font-weight:normal;font-stretch:normal;font-size:5.07113218px;line-height:11;font-family:Unifont;-inkscape-font-specification:Unifont;fill:#000000;stroke-width:0.27166778"
           id="path3971"
           inkscape:connector-curvature="0" />
        <path
           d="m 112.41919,188.50432 v -0.31695 h -0.6339 v -2.21862 h -0.63389 v 0.31695 h 0.31695 q 0,0 0,1.90167 h -0.63389 v 0.31695 z m -0.95084,-3.48641 q 0,0 0,0.6339 h 0.31694 q 0,0 0,-0.6339 z"
           style="font-style:normal;font-variant:normal;font-weight:normal;font-stretch:normal;font-size:5.07113218px;line-height:11;font-family:Unifont;-inkscape-font-specification:Unifont;fill:#000000;stroke-width:0.27166778"
           id="path3973"
           inkscape:connector-curvature="0" />
        <path
           d="m 113.37003,188.82126 v 0.31695 h 1.26778 v -0.31695 z m 0,0 q 0,0 0,-0.63389 h -0.31695 q 0,0 0,0.63389 z m 1.26778,0 h 0.31694 q 0,0 0,-0.63389 h -0.31694 q 0,0 0,0.63389 z m -1.26778,-0.63389 h 1.26778 v -0.31694 h -0.95084 v -0.31695 h 0.63389 v -0.31694 h -0.95083 z m 0,-0.95083 v -0.95084 h -0.31695 v 0.95084 z m 0.95083,0 h 0.31695 v -0.95084 h -0.31695 z m -0.95083,-0.95084 h 0.95083 v -0.31695 h -0.95083 z m 1.26778,0 h 0.31694 q 0,0 0,-0.63389 h -0.31694 q 0,0 0,0.63389 z"
           style="font-style:normal;font-variant:normal;font-weight:normal;font-stretch:normal;font-size:5.07113218px;line-height:11;font-family:Unifont;-inkscape-font-specification:Unifont;fill:#000000;stroke-width:0.27166778"
           id="path3975"
           inkscape:connector-curvature="0" />
        <path
           d="m 117.49031,188.18737 v -0.31694 h -0.31694 v 0.31694 h -1.26778 v 0.31695 h 1.26778 v -0.31695 z m -1.58472,0 v -0.95083 h 1.58472 v -0.95084 h -0.31694 q 0,0 0,0.63389 h -1.26778 q 0,0 0,-0.63389 h -0.31695 q 0,0 0,1.90167 z m 0,-1.90167 h 1.26778 v -0.31695 h -1.26778 z"
           style="font-style:normal;font-variant:normal;font-weight:normal;font-stretch:normal;font-size:5.07113218px;line-height:11;font-family:Unifont;-inkscape-font-specification:Unifont;fill:#000000;stroke-width:0.27166778"
           id="path3977"
           inkscape:connector-curvature="0" />
        <path
           d="m 118.12421,185.96875 q 0,0 0,2.53557 h 0.31694 q 0,0 0,-1.90168 h 0.31695 v -0.31694 h -0.31695 v -0.31695 z m 1.58473,0.31695 v 2.21862 h 0.31694 v -2.21862 z m -0.95084,0 h 0.95084 v -0.31695 h -0.95084 z"
           style="font-style:normal;font-variant:normal;font-weight:normal;font-stretch:normal;font-size:5.07113218px;line-height:11;font-family:Unifont;-inkscape-font-specification:Unifont;fill:#000000;stroke-width:0.27166778"
           id="path3979"
           inkscape:connector-curvature="0" />
        <path
           d="m 122.56145,188.18737 v -0.31694 h -0.31694 v 0.31694 h -1.26779 v 0.31695 h 1.26779 v -0.31695 z m 0,-1.58473 v -0.31694 h -0.31694 v 0.31694 z m -1.58473,1.58473 q 0,0 0,-1.90167 h -0.31694 q 0,0 0,1.90167 z m 0,-1.90167 h 1.26779 v -0.31695 h -1.26779 z"
           style="font-style:normal;font-variant:normal;font-weight:normal;font-stretch:normal;font-size:5.07113218px;line-height:11;font-family:Unifont;-inkscape-font-specification:Unifont;fill:#000000;stroke-width:0.27166778"
           id="path3981"
           inkscape:connector-curvature="0" />
        <path
           d="m 125.09701,188.18737 v -0.31694 h -0.31694 v 0.31694 h -1.26779 v 0.31695 h 1.26779 v -0.31695 z m -1.58473,0 v -0.95083 h 1.58473 v -0.95084 h -0.31694 q 0,0 0,0.63389 h -1.26779 q 0,0 0,-0.63389 h -0.31694 q 0,0 0,1.90167 z m 0,-1.90167 h 1.26779 v -0.31695 h -1.26779 z"
           style="font-style:normal;font-variant:normal;font-weight:normal;font-stretch:normal;font-size:5.07113218px;line-height:11;font-family:Unifont;-inkscape-font-specification:Unifont;fill:#000000;stroke-width:0.27166778"
           id="path3983"
           inkscape:connector-curvature="0" />
        <path
           d="m 128.26647,185.33486 q 0,0 0,3.16946 h 0.31695 q 0,0 0,-1.90168 h 0.31695 q 0,0 0,0.6339 h 0.63389 q 0,0 0,-0.6339 h -0.63389 q 0,0 0,-0.63389 h -0.31695 q 0,0 0,-0.63389 z m 1.58473,1.26778 q 0,0 0,1.90168 h 0.31695 q 0,0 0,-3.16946 h -0.31695 q 0,0 0,0.63389 h -0.31694 q 0,0 0,0.63389 z"
           style="font-style:normal;font-variant:normal;font-weight:normal;font-stretch:normal;font-size:5.07113218px;line-height:11;font-family:Unifont;-inkscape-font-specification:Unifont;fill:#000000;stroke-width:0.27166778"
           id="path3985"
           inkscape:connector-curvature="0" />
        <path
           d="m 131.11899,188.18737 v 0.31695 h 0.95083 v -0.31695 z m 0,0 v -0.95083 h -0.31695 v 0.95083 z m 1.26778,0 v 0.31695 h 0.31695 v -2.21862 h -0.31695 q 0,0 0,0.63389 h -1.26778 v 0.31695 h 1.26778 q 0,0 0,0.63389 h -0.31695 v 0.31694 z m -1.26778,-1.90167 h -0.31695 v 0.31694 h 0.31695 z m 0,0 h 1.26778 v -0.31695 h -1.26778 z"
           style="font-style:normal;font-variant:normal;font-weight:normal;font-stretch:normal;font-size:5.07113218px;line-height:11;font-family:Unifont;-inkscape-font-specification:Unifont;fill:#000000;stroke-width:0.27166778"
           id="path3987"
           inkscape:connector-curvature="0" />
        <path
           d="m 135.23928,188.18737 v -0.31694 h -0.31695 v 0.31694 h -1.26778 v 0.31695 h 1.26778 v -0.31695 z m 0,-1.58473 v -0.31694 h -0.31695 v 0.31694 z m -1.58473,1.58473 q 0,0 0,-1.90167 h -0.31695 q 0,0 0,1.90167 z m 0,-1.90167 h 1.26778 v -0.31695 h -1.26778 z"
           style="font-style:normal;font-variant:normal;font-weight:normal;font-stretch:normal;font-size:5.07113218px;line-height:11;font-family:Unifont;-inkscape-font-specification:Unifont;fill:#000000;stroke-width:0.27166778"
           id="path3989"
           inkscape:connector-curvature="0" />
        <path
           d="m 135.87317,185.01791 v 3.48641 h 0.31695 q 0,0 0,-1.90168 h 0.31694 v -0.31694 h -0.31694 q 0,0 0,-1.26779 z m 1.58473,1.26779 v 2.21862 h 0.31695 v -2.21862 z m -0.95084,0 h 0.95084 v -0.31695 h -0.95084 z"
           style="font-style:normal;font-variant:normal;font-weight:normal;font-stretch:normal;font-size:5.07113218px;line-height:11;font-family:Unifont;-inkscape-font-specification:Unifont;fill:#000000;stroke-width:0.27166778"
           id="path3991"
           inkscape:connector-curvature="0" />
        <path
           d="m 140.31041,188.50432 v -0.31695 h -0.63389 v -2.21862 h -0.63389 v 0.31695 h 0.31695 q 0,0 0,1.90167 h -0.6339 v 0.31695 z m -0.95083,-3.48641 q 0,0 0,0.6339 h 0.31694 q 0,0 0,-0.6339 z"
           style="font-style:normal;font-variant:normal;font-weight:normal;font-stretch:normal;font-size:5.07113218px;line-height:11;font-family:Unifont;-inkscape-font-specification:Unifont;fill:#000000;stroke-width:0.27166778"
           id="path3993"
           inkscape:connector-curvature="0" />
        <path
           d="m 140.9443,185.96875 q 0,0 0,2.53557 h 0.31695 q 0,0 0,-1.90168 h 0.31694 v -0.31694 h -0.31694 v -0.31695 z m 1.58473,0.31695 v 2.21862 h 0.31694 v -2.21862 z m -0.95084,0 h 0.95084 v -0.31695 h -0.95084 z"
           style="font-style:normal;font-variant:normal;font-weight:normal;font-stretch:normal;font-size:5.07113218px;line-height:11;font-family:Unifont;-inkscape-font-specification:Unifont;fill:#000000;stroke-width:0.27166778"
           id="path3995"
           inkscape:connector-curvature="0" />
        <path
           d="m 145.38154,188.18737 v -0.31694 h -0.31694 v 0.31694 h -1.26779 v 0.31695 h 1.26779 v -0.31695 z m -1.58473,0 v -0.95083 h 1.58473 v -0.95084 h -0.31694 q 0,0 0,0.63389 h -1.26779 q 0,0 0,-0.63389 h -0.31694 q 0,0 0,1.90167 z m 0,-1.90167 h 1.26779 v -0.31695 h -1.26779 z"
           style="font-style:normal;font-variant:normal;font-weight:normal;font-stretch:normal;font-size:5.07113218px;line-height:11;font-family:Unifont;-inkscape-font-specification:Unifont;fill:#000000;stroke-width:0.27166778"
           id="path3997"
           inkscape:connector-curvature="0" />
      </g>
      <g
         id="g3822"
         style="stroke:#000000">
        <path
           style="fill:none;stroke:#000000;stroke-width:0.26458332px;stroke-linecap:butt;stroke-linejoin:miter;stroke-opacity:1"
           d="m 33.072916,192.48958 v -47.625 H 149.48958 v 47.625 z"
           id="path3797"
           inkscape:connector-curvature="0" />
        <path
           style="fill:none;stroke:#000000;stroke-width:0.27490517px;stroke-linecap:butt;stroke-linejoin:miter;stroke-opacity:1"
           d="M 31.749999,193.8125 V 143.54167 H 150.8125 v 50.27083 z"
           id="path3797-1"
           inkscape:connector-curvature="0" />
      </g>
    </g>
  </g>
</svg>
